<svg xmlns="http://www.w3.org/2000/svg" xmlns:xlink="http://www.w3.org/1999/xlink" viewBox="0 0 677 135.17"><defs><style>.cls-1{fill:url(#Degradado_sin_nombre_41);}.cls-2{fill:#fff;}</style><linearGradient id="Degradado_sin_nombre_41" x1="63.92" y1="311.16" x2="-23.13" y2="311.16" gradientTransform="translate(23.13 -242.56)" gradientUnits="userSpaceOnUse"><stop offset="0" stop-color="#f600b0"/><stop offset="0.41" stop-color="#ff005f"/><stop offset="1" stop-color="#ed6b06"/></linearGradient></defs><title>logo_1</title><g id="Capa_2" data-name="Capa 2"><g id="Capa_1-2" data-name="Capa 1"><path class="cls-1" d="M32.43,134.59a13,13,0,0,1-5.31-1.14c-8.1-3.6-9.71-11.88-7.12-18.2,9.33-22.73,32.05-76.37,32.28-76.91A5.72,5.72,0,0,1,62.81,42.8c-.23.54-22.93,54.12-32.23,76.79-.67,1.62-.27,2.77,1.18,3.41s2.41-.66,2.8-1.2c2.55-4.69,22.73-55.72,36.8-91.75h-57C7.5,30.05.12,25.79,0,16.42A12.75,12.75,0,0,1,3.67,7C7.76,2.89,13.38,2.61,15,2.61c16.38.09,65.79,0,66.29,0h0a5.72,5.72,0,1,1,0,11.43c-.5,0-50,.1-66.37,0a5,5,0,0,0-3.19,1c-.11.11-.35.35-.34,1.21s0,2.34,2.88,2.34H79.73a5.72,5.72,0,0,1,5.33,7.79c-11.37,29.18-38.12,97.52-41,101.72A14.22,14.22,0,0,1,32.43,134.59Z"/><path class="cls-2" d="M203.8,68.47a62.47,62.47,0,0,1-5,25.44,72.07,72.07,0,0,1-14.08,21.19,67.31,67.31,0,0,1-21,14.31,63.52,63.52,0,0,1-25.55,5.41l-69,.14a7.5,7.5,0,0,1-5.39-12.75l7-7.16a7.51,7.51,0,0,1,5.31-2.24l61.94-.1a45.44,45.44,0,0,0,17.15-3.39,43.33,43.33,0,0,0,14-9.65,47.43,47.43,0,0,0,9.33-14.07,43.47,43.47,0,0,0-.18-34,45.17,45.17,0,0,0-9.65-14,45.92,45.92,0,0,0-14.07-9.49,45.18,45.18,0,0,0-17-3.21l-18.83.1a7.49,7.49,0,0,1-5.33-2.19l-7.1-7.07A7.5,7.5,0,0,1,111.56,3l25.89-.14A63.92,63.92,0,0,1,163.05,8a68,68,0,0,1,21,14.08,69.36,69.36,0,0,1,14.47,21.05A62.4,62.4,0,0,1,203.8,68.47Z"/><path class="cls-2" d="M296.35,7.43l.06,11.2A5.46,5.46,0,0,1,291,24.11l-58.27.31a5.42,5.42,0,0,1-3.88-1.59L217.65,11.69a5.46,5.46,0,0,1,3.82-9.32L290.87,2A5.45,5.45,0,0,1,296.35,7.43Zm-60,50,55.29-.3a5.24,5.24,0,0,1,5,5.43l.06,11a5.24,5.24,0,0,1-4.95,5.48l-55.29.29-15.07.08a5.23,5.23,0,0,1-5-5.43l-.06-11a5.22,5.22,0,0,1,4.95-5.48Zm-3.17,54.79,58.28-.31a5.45,5.45,0,0,1,5.48,5.43l.06,11.2a5.44,5.44,0,0,1-5.42,5.48l-69.4.37a5.45,5.45,0,0,1-3.92-9.27l11.06-11.27A5.49,5.49,0,0,1,233.17,112.2Z"/><path class="cls-2" d="M333.84,78.83a37.13,37.13,0,0,1-27.29-11.07,37.76,37.76,0,0,1-11.36-27.33,37.27,37.27,0,0,1,11.07-27.12A36.91,36.91,0,0,1,320.94,3.8a9.41,9.41,0,0,1,12.54,8.76l0,3.67c0,4-2.63,7.28-6.32,8.82l-.06,0a15,15,0,0,0-5.43,3.67,16,16,0,0,0-4.56,11.57A16.17,16.17,0,0,0,321.82,52a16,16,0,0,0,11.9,4.89l32.84-.18A38.6,38.6,0,0,1,405.37,95a37.14,37.14,0,0,1-11.24,27.29,37.55,37.55,0,0,1-14.71,9.36,9.41,9.41,0,0,1-12.51-8.77l0-3.68c0-4,2.64-7.28,6.33-8.82l.06,0a15.26,15.26,0,0,0,5.42-3.49,14.61,14.61,0,0,0,3.44-5.3,16.52,16.52,0,0,0,1.28-6.44,16.33,16.33,0,0,0-5-11.52,15.78,15.78,0,0,0-11.74-4.89Z"/><path class="cls-2" d="M437.63,124.54l-6.26,7.76c-4.88,6.07-13.36,1.87-13.41-6.64l-.61-114.78c0-8.47,8.33-12.77,13.3-6.83L437,11.63a10.7,10.7,0,0,1,2.35,6.75l.53,99.43A10.7,10.7,0,0,1,437.63,124.54Z"/><path class="cls-2" d="M553.84,96.84l10.22,3.33a6.12,6.12,0,0,1,2.64,9.88,57.86,57.86,0,0,1-5,5,67,67,0,0,1-13,9.47,57.39,57.39,0,0,1-15,6,60.51,60.51,0,0,1-16.49,2.23c-18.32.1-33.7-6.42-46.64-19.22S451,85.47,450.9,67.15c-.1-18.14,6.25-33.69,19.22-46.63C482.76,7.42,498.23.9,516.55.81a64.56,64.56,0,0,1,25.76,5,68.85,68.85,0,0,1,16.09,9.68,6.13,6.13,0,0,1,.49,9.13l-7.12,7.05a6,6,0,0,1-8,.45,41.86,41.86,0,0,0-27.13-9.18,42.39,42.39,0,0,0-31.11,13A42.17,42.17,0,0,0,473,67c.06,12,4.24,22.58,12.87,31.11s19.2,12.61,31.25,12.54a44.7,44.7,0,0,0,18.29-3.89,45.71,45.71,0,0,0,12.16-8.39A6.25,6.25,0,0,1,553.84,96.84Zm-30.92-41,37.8-.2a7.19,7.19,0,0,1,7.22,7.23l0,4.23a20.2,20.2,0,0,1-5.47,13.68l-6.12,6.53a4,4,0,0,1-7-2.68l-.14-7L523,77.83a6.09,6.09,0,0,1-6.11-6l0-9.79A6.08,6.08,0,0,1,522.92,55.88Z"/><path class="cls-2" d="M668.15,0a8.26,8.26,0,0,1,8.3,8.22L677,111.09a9.3,9.3,0,0,1-15.48,7L569.61,36.31a8.29,8.29,0,0,1-2.77-6.13l-.06-11.09a8.26,8.26,0,0,1,13.76-6.21L641,66.77a8.27,8.27,0,0,0,13.76-6.21l-.28-52.23A8.25,8.25,0,0,1,662.72,0Z"/></g></g></svg>